
<svg width="117" height="26" viewBox="0 0 117 26" fill="none" xmlns="http://www.w3.org/2000/svg">
<g clip-path="url(#clip0_1103_12998)">
<path d="M49.4541 25.6411H49.2402C48.027 25.6411 46.8125 25.6382 45.5993 25.6453C45.447 25.6453 45.3771 25.5974 45.3268 25.4566C45.1814 25.051 45.0221 24.6511 44.8669 24.2456C44.4518 24.4667 44.0619 24.6906 43.6579 24.8849C42.5524 25.4172 41.4035 25.8255 40.1778 25.9523C38.7465 26.1015 37.367 25.9255 36.1441 25.0863C35.1629 24.4132 34.5969 23.4429 34.2614 22.3207C34.0127 21.4842 33.9022 20.6252 33.8994 19.755C33.8938 17.7062 33.8785 15.6559 33.9092 13.607C33.9288 12.3144 34.1664 11.0597 34.8485 9.93038C35.5585 8.75458 36.6277 8.09556 37.9359 7.79281C39.0079 7.54498 40.0967 7.54639 41.1799 7.66045C42.1736 7.76465 43.159 7.93363 44.1485 8.07444C44.1863 8.08008 44.2254 8.08008 44.2841 8.0843V0.738004C46.013 0.495803 47.7238 0.256418 49.4527 0.015625V25.6411H49.4541ZM44.2869 16.336C44.2869 15.1419 44.2841 13.9464 44.2897 12.7523C44.2897 12.6115 44.2492 12.5495 44.1122 12.5256C43.7725 12.4664 43.4371 12.3862 43.0975 12.3327C42.2854 12.2031 41.472 12.0905 40.646 12.151C39.901 12.2045 39.3769 12.6242 39.1854 13.3522C39.1169 13.6127 39.0848 13.8915 39.0834 14.1619C39.075 15.8643 39.0778 17.5653 39.0806 19.2678C39.0806 19.4804 39.0904 19.6945 39.1085 19.9071C39.1756 20.7055 39.6131 21.2561 40.3483 21.3955C40.6879 21.4603 41.0513 21.4729 41.3937 21.4265C42.4308 21.2885 43.3323 20.821 44.1569 20.1887C44.2589 20.1099 44.2883 20.024 44.2883 19.9001C44.2841 18.7116 44.2855 17.5245 44.2855 16.336H44.2869Z" fill="white"/>
<path d="M111.804 25.6267C111.804 25.5337 111.804 25.4478 111.804 25.3633C111.804 21.598 111.804 17.834 111.804 14.0686C111.804 13.9419 111.807 13.8137 111.789 13.6884C111.681 12.9336 111.153 12.5717 110.306 12.6858C109.075 12.852 107.948 13.3307 106.854 13.8968C106.799 13.925 106.77 14.0151 106.746 14.0827C106.729 14.1306 106.743 14.1883 106.743 14.2418C106.743 17.9466 106.743 21.6515 106.743 25.3563V25.6267H101.573V7.96852H105.418C105.594 8.40223 105.772 8.83875 105.956 9.29499C106.089 9.23585 106.208 9.18093 106.327 9.12883C108.363 8.24029 110.482 7.69393 112.706 7.59958C113.553 7.56438 114.374 7.68126 115.11 8.14876C115.941 8.67822 116.383 9.48368 116.653 10.4032C116.883 11.1889 116.981 11.9958 116.983 12.8125C116.994 17.0173 116.996 21.222 117.002 25.4281C117.002 25.5478 117.013 25.645 116.836 25.6436C115.203 25.6379 113.572 25.6407 111.94 25.6393C111.902 25.6393 111.863 25.6323 111.806 25.6253L111.804 25.6267Z" fill="white"/>
<path d="M31.4013 24.9141C30.62 25.1211 29.8639 25.3464 29.0979 25.5168C27.6052 25.8491 26.0916 26.0209 24.5611 25.9984C23.2431 25.9801 21.9433 25.8224 20.7078 25.3239C18.7398 24.5283 17.5742 23.054 17.1549 20.9854C17.0235 20.3363 16.962 19.6646 16.9508 19.0013C16.9243 17.3665 16.9201 15.7302 16.9536 14.0954C16.9788 12.8548 17.2471 11.6607 17.8803 10.575C18.6686 9.22317 19.8706 8.42476 21.3381 7.9995C22.5792 7.63901 23.8511 7.55452 25.137 7.61789C25.9951 7.66013 26.8379 7.78123 27.6542 8.05723C29.6067 8.71624 30.7682 10.0948 31.2657 12.0789C31.4768 12.9181 31.562 13.7729 31.5704 14.6347C31.583 15.8823 31.5704 17.1313 31.5788 18.3789C31.5802 18.5775 31.5369 18.6366 31.3286 18.6366C28.3572 18.6296 25.3857 18.631 22.4129 18.631H22.1222C22.1222 18.838 22.1082 19.0295 22.125 19.2182C22.1585 19.5815 22.1809 19.9504 22.2634 20.3053C22.4031 20.9136 22.8071 21.2952 23.3899 21.4923C23.9308 21.6754 24.494 21.7148 25.0573 21.7176C26.8966 21.7275 28.7038 21.4881 30.4802 21.0051C30.5236 20.9939 30.5669 20.984 30.6368 20.9671C30.8884 22.2696 31.1385 23.5623 31.4013 24.9141ZM22.1278 14.7065H26.6534C26.6576 14.6347 26.666 14.5769 26.6632 14.5178C26.6478 14.0911 26.6632 13.6616 26.6087 13.2406C26.5025 12.4183 26.0412 11.9339 25.232 11.7663C24.6869 11.6536 24.1362 11.6635 23.5953 11.8029C22.9175 11.9789 22.4478 12.3957 22.2382 13.0787C22.0761 13.6053 22.125 14.1461 22.1264 14.7051L22.1278 14.7065Z" fill="white"/>
<path d="M9.0489 15.654C9.02095 14.8612 9.04191 14.0924 8.95526 13.3348C8.86301 12.528 8.39899 12.1407 7.52684 11.9929C6.67147 11.8464 5.81191 11.8605 4.94955 11.9027C3.76293 11.9591 2.58749 12.1154 1.42184 12.3379C1.34497 12.3519 1.2667 12.3618 1.16467 12.3773C1.10317 12.0309 1.04167 11.6929 0.981574 11.355C0.827831 10.4763 0.678281 9.59478 0.516152 8.71751C0.482608 8.53727 0.507766 8.44715 0.703439 8.39504C2.00047 8.05146 3.31847 7.8177 4.65464 7.71773C5.5785 7.64873 6.50794 7.60789 7.4346 7.61212C8.55552 7.61775 9.66807 7.72758 10.7582 8.02752C12.5738 8.526 13.6626 9.7018 13.9813 11.5606C14.114 12.3393 14.2035 13.1363 14.2077 13.9248C14.23 17.7494 14.2161 21.5739 14.2217 25.3984C14.2217 25.5857 14.1811 25.6476 13.9841 25.6476C12.7108 25.6392 11.4375 25.6406 10.1628 25.6476C10.0091 25.6476 9.94061 25.5998 9.89868 25.4547C9.81063 25.1478 9.7072 24.8464 9.60657 24.531C9.22081 24.7169 8.85183 24.9084 8.47167 25.0745C7.20398 25.6322 5.89018 26.0109 4.49391 25.9997C3.36879 25.9912 2.32892 25.7012 1.48613 24.8999C0.802673 24.2508 0.419713 23.4326 0.214256 22.523C-0.066675 21.2754 -0.0764587 20.0207 0.200279 18.7731C0.5469 17.2129 1.52247 16.244 3.0641 15.9019C3.71261 15.7582 4.38629 15.6878 5.05158 15.6681C6.28432 15.6315 7.51846 15.6583 8.7526 15.6583H9.0475L9.0489 15.654ZM9.02235 19.2885C8.96085 19.2842 8.92171 19.28 8.88398 19.28C8.08172 19.28 7.27946 19.273 6.4772 19.2842C6.22701 19.2871 5.97264 19.3138 5.72944 19.3701C5.34089 19.4603 5.07953 19.7081 5.02921 20.1193C4.99707 20.3882 4.9775 20.667 5.01104 20.9332C5.08931 21.533 5.37444 21.8231 5.97404 21.9006C7.0167 22.0343 7.99925 21.7865 8.94128 21.35C8.98042 21.3317 9.01675 21.2599 9.01815 21.212C9.02374 20.5783 9.02095 19.9447 9.02095 19.2885H9.02235Z" fill="white"/>
<path d="M68.3388 25.6113H63.1423V12.5986H60.4951V8.32628H63.1311C63.1367 8.22912 63.1437 8.15308 63.1437 8.07563C63.1479 7.10119 63.1339 6.12676 63.1591 5.15232C63.1842 4.14831 63.3813 3.1781 63.89 2.2966C64.5344 1.18276 65.5407 0.575847 66.7497 0.267463C67.8748 -0.0197986 69.0209 -0.0465533 70.167 0.0562413C70.8518 0.1182 71.5311 0.244933 72.2117 0.343503C72.276 0.35336 72.3389 0.373074 72.406 0.389972V4.5961C72.2355 4.57216 72.0748 4.54823 71.9154 4.5257C71.1677 4.41868 70.4185 4.31025 69.6596 4.38206C69.5352 4.39333 69.408 4.41164 69.2878 4.44262C68.7302 4.58484 68.4101 4.9059 68.3766 5.48746C68.3234 6.41824 68.3276 7.35184 68.3067 8.31079H72.4004V12.5916H68.3374V25.6155L68.3388 25.6113Z" fill="white"/>
<path d="M52.9876 7.96143H58.159V25.6421H57.9451C56.3658 25.6421 54.7878 25.6393 53.2084 25.6463C53.0295 25.6463 52.9736 25.6041 52.9736 25.4154C52.9792 19.6687 52.9778 13.9207 52.9778 8.17406C52.9778 8.10928 52.9834 8.0431 52.9876 7.96143Z" fill="white"/>
<path d="M58.1632 0.202584V5.72674H52.9876C52.9848 5.65915 52.9778 5.59297 52.9778 5.52819C52.9778 3.82715 52.9806 2.1247 52.9736 0.423663C52.9736 0.242012 53.0184 0.187095 53.2042 0.188503C54.7892 0.195544 56.3742 0.192727 57.9591 0.192727C58.0234 0.192727 58.0891 0.19836 58.1632 0.202584Z" fill="white"/>
<path d="M74.8488 0.269043H74.751V5.82277H79.9335V0.981565L74.8488 0.269043Z" fill="white"/>
<path d="M79.9335 8.0376H74.751V25.7155H78.8797H79.9391V24.8142V20.3335V12.8126V8.34739V8.0376H79.9335Z" fill="white"/>
<path d="M90.8129 7.59717C84.5793 7.59717 82.8867 11.1175 82.8867 14.7477V18.8497C82.8867 22.4799 84.5807 26.0002 90.8129 26.0002C97.0451 26.0002 98.7391 22.4799 98.7391 18.8497V14.7477C98.7391 11.1175 97.0451 7.59717 90.8129 7.59717ZM93.5509 18.9947C93.5509 20.6648 92.6858 21.6082 90.8129 21.6082C88.94 21.6082 88.0749 20.6648 88.0749 18.9947V14.6027C88.0749 12.9326 88.94 11.9892 90.8129 11.9892C92.6858 11.9892 93.5509 12.9326 93.5509 14.6027V18.9947Z" fill="white"/>
</g>
<defs>
<clipPath id="clip0_1103_12998">
<rect width="117" height="26" fill="white"/>
</clipPath>
</defs>
</svg>
